<?xml version="1.0" encoding="UTF-8" standalone="no"?>
<!-- Created with Inkscape (http://www.inkscape.org/) -->

<svg
   width="39.422882mm"
   height="45.772854mm"
   viewBox="0 0 39.422882 45.772854"
   version="1.1"
   id="svg5"
   xmlns:inkscape="http://www.inkscape.org/namespaces/inkscape"
   xmlns:sodipodi="http://sodipodi.sourceforge.net/DTD/sodipodi-0.dtd"
   xmlns="http://www.w3.org/2000/svg"
   xmlns:svg="http://www.w3.org/2000/svg">
  <sodipodi:namedview
     id="namedview7"
     pagecolor="#ffffff"
     bordercolor="#000000"
     borderopacity="0.25"
     inkscape:showpageshadow="2"
     inkscape:pageopacity="0.0"
     inkscape:pagecheckerboard="0"
     inkscape:deskcolor="#d1d1d1"
     inkscape:document-units="mm"
     showgrid="true">
    <inkscape:grid
       type="xygrid"
       id="grid132" />
  </sodipodi:namedview>
  <defs
     id="defs2" />
  <g
     inkscape:label="Layer 1"
     inkscape:groupmode="layer"
     id="layer1"
     transform="translate(-116.81356,-148.56355)">
    <path
       style="fill:none;stroke:#000000;stroke-width:1.32292;stroke-linecap:round;stroke-linejoin:round;stroke-miterlimit:20;stroke-dasharray:none;stroke-opacity:1;paint-order:stroke markers fill"
       d="m 123.82502,155.575 c 0,0 0,0 3.175,-3.175 3.17499,-3.17499 6.34999,-3.17499 6.34999,-3.17499 0,0 15.87497,0 19.04996,0 3.175,0 3.175,3.17499 3.175,3.17499 0,0 0,34.92495 0,38.09994 0,3.175 -3.175,3.175 -3.175,3.175 0,0 -28.57495,0 -31.74994,0 -3.175,0 -3.175,-3.175 -3.175,-3.175 0,0 0,-22.22496 0,-25.39996 0,-3.17499 3.175,-6.34999 3.175,-6.34999 z"
       id="path1617" />
    <g
       id="g1761"
       transform="translate(0,-1.5875)">
      <path
         style="fill:none;stroke:#000000;stroke-width:1.32292;stroke-linecap:round;stroke-linejoin:round;stroke-miterlimit:20;stroke-dasharray:none;stroke-opacity:1;paint-order:stroke markers fill"
         d="m 144.4625,190.5 -12.7,-19.05 -9.525,14.2875"
         id="path1389" />
      <path
         style="fill:none;stroke:#000000;stroke-width:1.32292;stroke-linecap:round;stroke-linejoin:round;stroke-miterlimit:20;stroke-dasharray:none;stroke-opacity:1;paint-order:stroke markers fill"
         d="m 141.2875,185.7375 6.35,-9.525 3.175,4.7625"
         id="path1391" />
      <circle
         style="fill:none;stroke:#000000;stroke-width:1.32292;stroke-linecap:round;stroke-linejoin:round;stroke-miterlimit:20;stroke-dasharray:none;stroke-opacity:1;paint-order:stroke markers fill"
         id="path1397"
         cx="143.80104"
         cy="169.20103"
         r="3.175" />
      <path
         style="fill:none;stroke:#000000;stroke-width:1.32292;stroke-linecap:round;stroke-linejoin:round;stroke-miterlimit:20;stroke-dasharray:none;stroke-opacity:1;paint-order:stroke markers fill"
         d="M 125.4125,165.1 H 127 v 6.35 h -1.5875 3.175 H 127 v -6.35 h 1.5875"
         id="path1399" />
      <path
         style="fill:none;stroke:#000000;stroke-width:1.32292;stroke-linecap:round;stroke-linejoin:round;stroke-miterlimit:20;stroke-dasharray:none;stroke-opacity:1;paint-order:stroke markers fill"
         d="m 123.825,161.925 c 0,0 -1.5875,0 -1.5875,1.5875 0,1.5875 0,25.4 0,25.4 0,0 0,1.5875 1.5875,1.5875 1.5875,0 25.4,0 25.4,0 0,0 1.5875,0 1.5875,-1.5875 0,-1.5875 0,-25.4 0,-25.4 0,0 0,-1.5875 -1.5875,-1.5875 -1.5875,0 -25.4,0 -25.4,0 z"
         id="path1749" />
    </g>
  </g>
</svg>
