<?xml version="1.0" encoding="UTF-8" standalone="no"?>
<!-- Created with Inkscape (http://www.inkscape.org/) -->

<svg
   width="39.422882mm"
   height="45.772854mm"
   viewBox="0 0 39.422882 45.772854"
   version="1.1"
   id="svg5"
   xmlns="http://www.w3.org/2000/svg"
   xmlns:svg="http://www.w3.org/2000/svg">
  <defs
     id="defs2" />
  <g
     id="layer1"
     transform="translate(-164.43856,-148.56355)">
    <path
       style="fill:none;stroke:#000000;stroke-width:1.32292;stroke-linecap:round;stroke-linejoin:round;stroke-miterlimit:20;stroke-dasharray:none;stroke-opacity:1;paint-order:stroke markers fill"
       d="m 174.625,163.5125 c 0,0 -1.5875,0 -1.5875,1.5875 0,1.5875 0,3.175 0,3.175 0,0 0,1.5875 1.5875,1.5875 1.5875,0 1.5875,0 1.5875,0 0,0 1.5875,0 1.5875,-1.5875 0,-1.5875 0,-3.175 0,-3.175 0,0 0,-1.5875 -1.5875,-1.5875 -1.5875,0 -1.5875,0 -1.5875,0 z"
       id="path1405" />
    <path
       style="fill:none;stroke:#000000;stroke-width:1.32292;stroke-linecap:round;stroke-linejoin:round;stroke-miterlimit:20;stroke-dasharray:none;stroke-opacity:1;paint-order:stroke markers fill"
       d="m 176.2125,182.5625 v 1.5875 c 0,0 0,1.5875 -1.5875,1.5875 -1.5875,0 -1.5875,-1.5875 -1.5875,-1.5875 v -1.5875 c 0,0 0,-1.5875 1.5875,-1.5875 1.5875,0 1.5875,1.5875 1.5875,1.5875 l -3.175,1.5875"
       id="path1421" />
    <path
       style="fill:none;stroke:#000000;stroke-width:1.32292;stroke-linecap:round;stroke-linejoin:round;stroke-miterlimit:20;stroke-dasharray:none;stroke-opacity:1;paint-order:stroke markers fill"
       d="m 177.8,182.5625 3.175,3.175"
       id="path1423" />
    <path
       style="fill:none;stroke:#000000;stroke-width:1.32292;stroke-linecap:round;stroke-linejoin:round;stroke-miterlimit:20;stroke-dasharray:none;stroke-opacity:1;paint-order:stroke markers fill"
       d="m 180.975,182.5625 -3.175,3.175"
       id="path1425" />
    <path
       style="fill:none;stroke:#000000;stroke-width:1.32292;stroke-linecap:round;stroke-linejoin:round;stroke-miterlimit:20;stroke-dasharray:none;stroke-opacity:1;paint-order:stroke markers fill"
       d="M 185.7375,180.975 H 184.15 c 0,0 -1.5875,0 -1.5875,1.5875 0,1.5875 0,1.5875 0,1.5875 0,0 0,1.5875 1.5875,1.5875 1.5875,0 1.5875,-1.5875 1.5875,-1.5875 0,0 0,-1.5875 -1.5875,-1.5875 -1.5875,0 -1.5875,0 -1.5875,0"
       id="path1429" />
    <path
       style="fill:none;stroke:#000000;stroke-width:1.32292;stroke-linecap:round;stroke-linejoin:round;stroke-miterlimit:20;stroke-dasharray:none;stroke-opacity:1;paint-order:stroke markers fill"
       d="m 187.325,184.15 c 0,0 0,1.5875 1.5875,1.5875 1.5875,0 1.5875,-1.5875 1.5875,-1.5875 0,0 0,-1.5875 -1.5875,-1.5875 -1.5875,0 -1.5875,0 -1.5875,0 v -1.5875 h 3.175"
       id="path1439" />
    <path
       style="fill:none;stroke:#000000;stroke-width:1.32292;stroke-linecap:round;stroke-linejoin:round;stroke-miterlimit:20;stroke-dasharray:none;stroke-opacity:1;paint-order:stroke markers fill"
       d="M 188.9125,165.1 Z"
       id="path1445" />
    <path
       style="fill:none;stroke:#000000;stroke-width:1.32292;stroke-linecap:round;stroke-linejoin:round;stroke-miterlimit:20;stroke-dasharray:none;stroke-opacity:1;paint-order:stroke markers fill"
       d="m 185.7375,165.1 v 1.5875"
       id="path1573" />
    <path
       style="fill:none;stroke:#000000;stroke-width:1.32292;stroke-linecap:round;stroke-linejoin:round;stroke-miterlimit:20;stroke-dasharray:none;stroke-opacity:1;paint-order:stroke markers fill"
       d="m 188.9125,165.1 v 1.5875"
       id="path1575" />
    <path
       style="fill:none;stroke:#000000;stroke-width:1.32292;stroke-linecap:round;stroke-linejoin:round;stroke-miterlimit:20;stroke-dasharray:none;stroke-opacity:1;paint-order:stroke markers fill"
       d="m 190.5,165.1 v 1.5875 0 0"
       id="path1577" />
    <path
       style="fill:none;stroke:#000000;stroke-width:1.32292;stroke-linecap:round;stroke-linejoin:round;stroke-miterlimit:20;stroke-dasharray:none;stroke-opacity:1;paint-order:stroke markers fill"
       d="m 192.0875,165.1 v 1.5875"
       id="path1579" />
    <path
       style="fill:none;stroke:#000000;stroke-width:1.32292;stroke-linecap:round;stroke-linejoin:round;stroke-miterlimit:20;stroke-dasharray:none;stroke-opacity:1;paint-order:stroke markers fill"
       d="M 182.5625,165.1 H 184.15"
       id="path1589" />
    <path
       style="fill:none;stroke:#000000;stroke-width:1.32292;stroke-linecap:round;stroke-linejoin:round;stroke-miterlimit:20;stroke-dasharray:none;stroke-opacity:1;paint-order:stroke markers fill"
       d="m 193.675,165.1 h 1.5875"
       id="path1591" />
    <path
       style="fill:none;stroke:#000000;stroke-width:1.32292;stroke-linecap:round;stroke-linejoin:round;stroke-miterlimit:20;stroke-dasharray:none;stroke-opacity:1;paint-order:stroke markers fill"
       d="m 182.5625,168.275 v 1.5875"
       id="path1593" />
    <path
       style="fill:none;stroke:#000000;stroke-width:1.32292;stroke-linecap:round;stroke-linejoin:round;stroke-miterlimit:20;stroke-dasharray:none;stroke-opacity:1;paint-order:stroke markers fill"
       d="m 184.15,168.275 v 1.5875"
       id="path1595" />
    <path
       style="fill:none;stroke:#000000;stroke-width:1.32292;stroke-linecap:round;stroke-linejoin:round;stroke-miterlimit:20;stroke-dasharray:none;stroke-opacity:1;paint-order:stroke markers fill"
       d="m 185.7375,168.275 h 1.5875"
       id="path1597" />
    <path
       style="fill:none;stroke:#000000;stroke-width:1.32292;stroke-linecap:round;stroke-linejoin:round;stroke-miterlimit:20;stroke-dasharray:none;stroke-opacity:1;paint-order:stroke markers fill"
       d="m 180.975,171.45 c 0,0 -1.5875,0 -1.5875,1.5875 0,1.5875 -1.5875,1.5875 -1.5875,1.5875 0,0 1.5875,0 1.5875,1.5875 0,1.5875 1.5875,1.5875 1.5875,1.5875"
       id="path1607" />
    <path
       style="fill:none;stroke:#000000;stroke-width:1.32292;stroke-linecap:round;stroke-linejoin:round;stroke-miterlimit:20;stroke-dasharray:none;stroke-opacity:1;paint-order:stroke markers fill"
       d="m 180.975,174.625 h 6.35"
       id="path1609" />
    <path
       style="fill:none;stroke:#000000;stroke-width:1.32292;stroke-linecap:round;stroke-linejoin:round;stroke-miterlimit:20;stroke-dasharray:none;stroke-opacity:1;paint-order:stroke markers fill"
       d="m 188.9125,176.2125 v 1.5875 0"
       id="path1611" />
    <path
       style="fill:none;stroke:#000000;stroke-width:1.32292;stroke-linecap:round;stroke-linejoin:round;stroke-miterlimit:20;stroke-dasharray:none;stroke-opacity:1;paint-order:stroke markers fill"
       d="m 188.9125,174.625 c 0,0 0,0 0,0 z"
       id="path1613" />
    <path
       style="fill:none;stroke:#000000;stroke-width:1.32292;stroke-linecap:round;stroke-linejoin:round;stroke-miterlimit:20;stroke-dasharray:none;stroke-opacity:1;paint-order:stroke markers fill"
       d="m 190.5,171.45 c 0,0 1.5875,0 1.5875,1.5875 0,1.5875 1.5875,1.5875 1.5875,1.5875 0,0 -1.5875,0 -1.5875,1.5875 0,1.5875 -1.5875,1.5875 -1.5875,1.5875"
       id="path1615" />
    <path
       style="fill:none;stroke:#000000;stroke-width:1.32292;stroke-linecap:round;stroke-linejoin:round;stroke-miterlimit:20;stroke-dasharray:none;stroke-opacity:1;paint-order:stroke markers fill"
       d="m 171.45002,155.575 c 0,0 0,0 3.175,-3.175 3.17499,-3.17499 6.34999,-3.17499 6.34999,-3.17499 0,0 15.87497,0 19.04996,0 3.175,0 3.175,3.17499 3.175,3.17499 0,0 0,34.92495 0,38.09994 0,3.175 -3.175,3.175 -3.175,3.175 0,0 -28.57495,0 -31.74994,0 -3.175,0 -3.175,-3.175 -3.175,-3.175 0,0 0,-22.22496 0,-25.39996 0,-3.17499 3.175,-6.34999 3.175,-6.34999 z"
       id="path1619" />
  </g>
</svg>
