<?xml version="1.0" encoding="UTF-8" standalone="no"?>
<!-- Created with Inkscape (http://www.inkscape.org/) -->

<svg
   viewBox="0 0 39.422882 45.77285"
   version="1.1"
   id="svg5"
   xmlns="http://www.w3.org/2000/svg"
   xmlns:svg="http://www.w3.org/2000/svg">
  <defs
     id="defs2" />
  <g
     id="layer1"
     transform="translate(-21.563538,-202.53855)">
    <path
       style="fill:none;stroke:#000000;stroke-width:1.19448;stroke-linecap:round;stroke-linejoin:round;stroke-miterlimit:20;stroke-dasharray:none;stroke-opacity:1;paint-order:stroke markers fill"
       id="path1323"
       d="m 69.821614,38.149417 c 3.478226,-6.024463 -25.646455,-6.024463 -22.16823,0 3.478225,6.024463 18.040566,-19.198251 11.084115,-19.198251 -6.95645,0 7.60589,25.222714 11.084115,19.198251 z"
       transform="matrix(1.1074253,0,0,1.1074253,-23.772393,196.47073)" />
    <path
       style="fill:none;stroke:#000000;stroke-width:1.32292;stroke-linecap:round;stroke-linejoin:round;stroke-miterlimit:20;stroke-dasharray:none;stroke-opacity:1;paint-order:stroke markers fill"
       d="m 28.575,209.55 c 0,0 0,0 3.174995,-3.175 3.174995,-3.17499 6.34999,-3.17499 6.34999,-3.17499 0,0 15.874973,0 19.049968,0 3.174995,0 3.174995,3.17499 3.174995,3.17499 0,0 0,34.92495 0,38.09994 0,3.175 -3.174995,3.175 -3.174995,3.175 0,0 -28.574953,0 -31.749948,0 -3.174995,0 -3.174995,-3.175 -3.174995,-3.175 0,0 0,-22.22496 0,-25.39996 0,-3.17499 3.174995,-6.34999 3.174995,-6.34999 z"
       id="path1621" />
  </g>
</svg>
