<?xml version="1.0" encoding="UTF-8" standalone="no"?>
<!-- Created with Inkscape (http://www.inkscape.org/) -->

<svg
   viewBox="0 0 39.422882 45.77285"
   version="1.1"
   id="svg5"
   xmlns="http://www.w3.org/2000/svg"
   xmlns:svg="http://www.w3.org/2000/svg">
  <defs
     id="defs2" />
  <g
     id="layer1"
     transform="translate(-116.81354,-202.53855)">
    <path
       style="fill:none;stroke:#000000;stroke-width:1.32292;stroke-linecap:round;stroke-linejoin:round;stroke-miterlimit:20;stroke-dasharray:none;stroke-opacity:1;paint-order:stroke markers fill"
       id="path1341"
       d="m 142.875,230.1875 a 7.9375,7.9375 0 0 1 -4.89995,7.33329 7.9375,7.9375 0 0 1 -8.65021,-1.72063 7.9375,7.9375 0 0 1 -1.72063,-8.65021 7.9375,7.9375 0 0 1 7.33329,-4.89995 v 7.9375 z" />
    <path
       style="fill:none;stroke:#000000;stroke-width:1.32292;stroke-linecap:round;stroke-linejoin:round;stroke-miterlimit:20;stroke-dasharray:none;stroke-opacity:1;paint-order:stroke markers fill"
       id="path1343"
       d="m 138.11249,219.075 a 7.9375,7.9375 0 0 1 7.9375,7.9375 h -7.9375 z" />
    <path
       style="fill:none;stroke:#000000;stroke-width:1.32292;stroke-linecap:round;stroke-linejoin:round;stroke-miterlimit:20;stroke-dasharray:none;stroke-opacity:1;paint-order:stroke markers fill"
       d="m 127,223.8375 v -6.35 c 0,0 1.5875,0 3.175,0 1.5875,0 1.5875,1.5875 1.5875,1.5875 0,0 0,1.5875 -1.5875,1.5875 -1.5875,0 -3.175,0 -3.175,0"
       id="path1345" />
    <path
       style="fill:none;stroke:#000000;stroke-width:1.32292;stroke-linecap:round;stroke-linejoin:round;stroke-miterlimit:20;stroke-dasharray:none;stroke-opacity:1;paint-order:stroke markers fill"
       d="m 123.825,209.55001 c 0,0 0,0 3.175,-3.175 3.17499,-3.17499 6.34999,-3.17499 6.34999,-3.17499 0,0 15.87497,0 19.04996,0 3.175,0 3.175,3.17499 3.175,3.17499 0,0 0,34.92494 0,38.09994 0,3.17499 -3.175,3.17499 -3.175,3.17499 0,0 -28.57495,0 -31.74994,0 -3.175,0 -3.175,-3.17499 -3.175,-3.17499 0,0 0,-22.22497 0,-25.39996 0,-3.175 3.175,-6.34999 3.175,-6.34999 z"
       id="path1625" />
  </g>
</svg>
