<?xml version="1.0" encoding="UTF-8" standalone="no"?>
<!-- Created with Inkscape (http://www.inkscape.org/) -->

<svg
   viewBox="0 0 39.422882 45.77285"
   version="1.1"
   id="svg5"
   xmlns="http://www.w3.org/2000/svg"
   xmlns:svg="http://www.w3.org/2000/svg">
  <defs
     id="defs2" />
  <g
     id="layer1"
     transform="translate(-164.43854,-202.53855)">
    <path
       d="m 173.0375,217.4875 6.35,6.35"
       id="path1289" />
    <path
       d="m 179.3875,217.4875 -6.35,6.35 h 3.175"
       id="path1295" />
    <path
       d="m 169.8625,227.0125 h 28.575"
       id="path1297" />
    <path
       d="m 184.15,214.3125 v 28.575"
       id="path1299" />
    <path
       d="m 169.8625,234.95 h 28.575"
       id="path1301" />
    <path
       d="m 173.0375,230.1875 1.5875,1.5875 1.5875,-1.5875 1.5875,1.5875 1.5875,-1.5875 1.5875,1.5875"
       id="path1303" />
    <path
       d="m 190.5,219.075 c 0,0 0,-1.5875 -1.5875,-1.5875 -1.5875,0 -1.5875,1.5875 -1.5875,1.5875 v 3.175 c 0,0 0,1.5875 1.5875,1.5875 1.5875,0 1.5875,-1.5875 1.5875,-1.5875 v -3.175 l -3.175,3.175"
       id="path1305" />
    <path
       d="m 195.2625,219.075 c 0,0 0,-1.5875 -1.5875,-1.5875 -1.5875,0 -1.5875,1.5875 -1.5875,1.5875 v 3.175 c 0,0 0,1.5875 1.5875,1.5875 1.5875,0 1.5875,-1.5875 1.5875,-1.5875 v -3.175 l -3.175,3.175"
       id="path1321" />
    <path
       d="m 171.45,209.55 c 0,0 0,0 3.175,-3.17499 3.17499,-3.175 6.34999,-3.175 6.34999,-3.175 0,0 15.87497,0 19.04996,0 3.175,0 3.175,3.175 3.175,3.175 0,0 0,34.92494 0,38.09994 0,3.17499 -3.175,3.17499 -3.175,3.17499 0,0 -28.57495,0 -31.74994,0 -3.175,0 -3.175,-3.17499 -3.175,-3.17499 0,0 0,-22.22497 0,-25.39996 0,-3.175 3.175,-6.34999 3.175,-6.34999 z"
       id="path1627" />
  </g>
</svg>
